<mxfile host="www.draw.io" modified="2019-12-13T01:49:20.118Z" agent="Mozilla/5.0 (Macintosh; Intel Mac OS X 10_15_1) AppleWebKit/537.36 (KHTML, like Gecko) Chrome/78.0.3904.108 Safari/537.36" etag="O6OQlo7nwAIzkS5pki1T" version="12.4.1" type="github" pages="1">
  <diagram id="WWpknr9MDz5E0Q0uaZPR" name="第 1 页">
    <mxGraphModel dx="946" dy="590" grid="1" gridSize="10" guides="1" tooltips="1" connect="1" arrows="1" fold="1" page="1" pageScale="1" pageWidth="827" pageHeight="1169" math="0" shadow="0">
      <root>
        <mxCell id="0"/>
        <mxCell id="1" parent="0"/>
        <mxCell id="SkLRgJcnzGC27V6fbJM8-1" value="" style="rounded=0;whiteSpace=wrap;html=1;fillColor=#e3c800;strokeColor=#B09500;fontColor=#ffffff;" parent="1" vertex="1">
          <mxGeometry x="160" y="480" width="490" height="360" as="geometry"/>
        </mxCell>
        <mxCell id="SkLRgJcnzGC27V6fbJM8-29" value="" style="rounded=0;whiteSpace=wrap;html=1;fillColor=#fff2cc;strokeColor=#d6b656;" parent="1" vertex="1">
          <mxGeometry x="177" y="580" width="183" height="250" as="geometry"/>
        </mxCell>
        <mxCell id="SkLRgJcnzGC27V6fbJM8-34" value="" style="rounded=0;whiteSpace=wrap;html=1;fillColor=#fad7ac;strokeColor=#b46504;" parent="1" vertex="1">
          <mxGeometry x="198.5" y="650" width="140" height="176" as="geometry"/>
        </mxCell>
        <mxCell id="SkLRgJcnzGC27V6fbJM8-31" value="" style="rounded=0;whiteSpace=wrap;html=1;fillColor=#e1d5e7;strokeColor=#9673a6;" parent="1" vertex="1">
          <mxGeometry x="370" y="580" width="240" height="250" as="geometry"/>
        </mxCell>
        <mxCell id="SkLRgJcnzGC27V6fbJM8-30" value="" style="rounded=0;whiteSpace=wrap;html=1;fillColor=#f8cecc;strokeColor=#b85450;" parent="1" vertex="1">
          <mxGeometry x="415" y="592.5" width="150" height="150" as="geometry"/>
        </mxCell>
        <mxCell id="SkLRgJcnzGC27V6fbJM8-2" value="" style="rounded=0;whiteSpace=wrap;html=1;fillColor=#1ba1e2;strokeColor=#006EAF;fontColor=#ffffff;" parent="1" vertex="1">
          <mxGeometry x="160" y="180" width="120" height="260" as="geometry"/>
        </mxCell>
        <mxCell id="SkLRgJcnzGC27V6fbJM8-3" value="" style="rounded=0;whiteSpace=wrap;html=1;fillColor=#0050ef;strokeColor=#001DBC;fontColor=#ffffff;" parent="1" vertex="1">
          <mxGeometry x="280" y="180" width="350" height="260" as="geometry"/>
        </mxCell>
        <mxCell id="SkLRgJcnzGC27V6fbJM8-4" value="列表页" style="text;html=1;align=center;verticalAlign=middle;whiteSpace=wrap;rounded=0;fontColor=#FFFFFF;" parent="1" vertex="1">
          <mxGeometry x="170" y="190" width="40" height="20" as="geometry"/>
        </mxCell>
        <mxCell id="SkLRgJcnzGC27V6fbJM8-5" value="聊天页" style="text;html=1;align=center;verticalAlign=middle;whiteSpace=wrap;rounded=0;fontColor=#FFFFFF;" parent="1" vertex="1">
          <mxGeometry x="289.5" y="190" width="40" height="20" as="geometry"/>
        </mxCell>
        <mxCell id="SkLRgJcnzGC27V6fbJM8-6" value="Parrot SDK" style="text;html=1;strokeColor=none;fillColor=none;align=center;verticalAlign=middle;whiteSpace=wrap;rounded=0;" parent="1" vertex="1">
          <mxGeometry x="170" y="491.5" width="70" height="20" as="geometry"/>
        </mxCell>
        <mxCell id="SkLRgJcnzGC27V6fbJM8-7" value="&lt;ul style=&quot;padding: 0px ; margin: 0px ; list-style: none ; font-family: &amp;#34;stheiti&amp;#34; ; font-size: 13px&quot;&gt;&lt;li style=&quot;line-height: 20px ; margin-bottom: 6px&quot;&gt;&lt;span style=&quot;font-family: &amp;#34;helvetica&amp;#34; ; font-size: 12px&quot;&gt;BusinessView&lt;/span&gt;&lt;br&gt;&lt;/li&gt;&lt;/ul&gt;" style="rounded=1;whiteSpace=wrap;html=1;fillColor=#6a00ff;strokeColor=#3700CC;fontColor=#ffffff;" parent="1" vertex="1">
          <mxGeometry x="165" y="250" width="110" height="50" as="geometry"/>
        </mxCell>
        <mxCell id="SkLRgJcnzGC27V6fbJM8-8" value="BusinessPresenter" style="rounded=1;whiteSpace=wrap;html=1;fillColor=#6a00ff;strokeColor=#3700CC;fontColor=#ffffff;" parent="1" vertex="1">
          <mxGeometry x="165" y="310" width="110" height="50" as="geometry"/>
        </mxCell>
        <mxCell id="SkLRgJcnzGC27V6fbJM8-9" value="&lt;span style=&quot;white-space: normal&quot;&gt;BusinessData&lt;/span&gt;" style="rounded=1;whiteSpace=wrap;html=1;fillColor=#6a00ff;strokeColor=#3700CC;fontColor=#ffffff;" parent="1" vertex="1">
          <mxGeometry x="165" y="370" width="110" height="50" as="geometry"/>
        </mxCell>
        <mxCell id="SkLRgJcnzGC27V6fbJM8-11" value="" style="rounded=0;whiteSpace=wrap;html=1;fillColor=#f0a30a;strokeColor=#BD7000;fontColor=#ffffff;" parent="1" vertex="1">
          <mxGeometry x="302" y="330" width="319" height="100" as="geometry"/>
        </mxCell>
        <mxCell id="SkLRgJcnzGC27V6fbJM8-12" value="套餐插件" style="ellipse;whiteSpace=wrap;html=1;aspect=fixed;fillColor=#fad9d5;strokeColor=#ae4132;" parent="1" vertex="1">
          <mxGeometry x="309.5" y="340" width="80" height="80" as="geometry"/>
        </mxCell>
        <mxCell id="SkLRgJcnzGC27V6fbJM8-13" value="案例插件" style="ellipse;whiteSpace=wrap;html=1;aspect=fixed;fillColor=#fad9d5;strokeColor=#ae4132;" parent="1" vertex="1">
          <mxGeometry x="399.5" y="340" width="80" height="80" as="geometry"/>
        </mxCell>
        <mxCell id="SkLRgJcnzGC27V6fbJM8-14" value="医师插件" style="ellipse;whiteSpace=wrap;html=1;aspect=fixed;fillColor=#fad9d5;strokeColor=#ae4132;" parent="1" vertex="1">
          <mxGeometry x="489.5" y="340" width="80" height="80" as="geometry"/>
        </mxCell>
        <mxCell id="SkLRgJcnzGC27V6fbJM8-15" value="。。。" style="text;html=1;strokeColor=none;fillColor=none;align=center;verticalAlign=middle;whiteSpace=wrap;rounded=0;" parent="1" vertex="1">
          <mxGeometry x="579.5" y="370" width="40" height="20" as="geometry"/>
        </mxCell>
        <mxCell id="SkLRgJcnzGC27V6fbJM8-16" value="&lt;ul style=&quot;padding: 0px ; margin: 0px ; list-style: none ; font-family: &amp;#34;stheiti&amp;#34; ; font-size: 13px&quot;&gt;&lt;li style=&quot;line-height: 20px ; margin-bottom: 6px&quot;&gt;&lt;span style=&quot;font-family: &amp;#34;helvetica&amp;#34; ; font-size: 12px&quot;&gt;BusinessView&lt;/span&gt;&lt;br&gt;&lt;/li&gt;&lt;/ul&gt;" style="rounded=1;whiteSpace=wrap;html=1;fillColor=#60a917;strokeColor=#2D7600;fontColor=#ffffff;" parent="1" vertex="1">
          <mxGeometry x="299" y="240" width="108" height="50" as="geometry"/>
        </mxCell>
        <mxCell id="SkLRgJcnzGC27V6fbJM8-17" value="BusinessPresenter" style="rounded=1;whiteSpace=wrap;html=1;fillColor=#60a917;strokeColor=#2D7600;fontColor=#ffffff;" parent="1" vertex="1">
          <mxGeometry x="409" y="240" width="108" height="50" as="geometry"/>
        </mxCell>
        <mxCell id="SkLRgJcnzGC27V6fbJM8-18" value="&lt;span style=&quot;white-space: normal&quot;&gt;BusinessData&lt;/span&gt;" style="rounded=1;whiteSpace=wrap;html=1;fillColor=#60a917;strokeColor=#2D7600;fontColor=#ffffff;" parent="1" vertex="1">
          <mxGeometry x="520" y="240" width="108" height="50" as="geometry"/>
        </mxCell>
        <mxCell id="SkLRgJcnzGC27V6fbJM8-19" value="Presenter" style="rounded=1;whiteSpace=wrap;html=1;fillColor=#f5f5f5;strokeColor=#666666;fontColor=#333333;" parent="1" vertex="1">
          <mxGeometry x="198.5" y="592" width="140" height="48" as="geometry"/>
        </mxCell>
        <mxCell id="SkLRgJcnzGC27V6fbJM8-20" value="ChatView" style="rounded=1;whiteSpace=wrap;html=1;fillColor=#f5f5f5;strokeColor=#666666;fontColor=#333333;" parent="1" vertex="1">
          <mxGeometry x="177" y="512" width="433" height="60" as="geometry"/>
        </mxCell>
        <mxCell id="SkLRgJcnzGC27V6fbJM8-22" value="poll-service" style="rounded=1;whiteSpace=wrap;html=1;fillColor=#dae8fc;strokeColor=#6c8ebf;" parent="1" vertex="1">
          <mxGeometry x="210.5" y="717" width="118" height="42" as="geometry"/>
        </mxCell>
        <mxCell id="SkLRgJcnzGC27V6fbJM8-23" value="sharkpush" style="rounded=1;whiteSpace=wrap;html=1;fillColor=#d5e8d4;strokeColor=#82b366;" parent="1" vertex="1">
          <mxGeometry x="208.5" y="770" width="120" height="45" as="geometry"/>
        </mxCell>
        <mxCell id="SkLRgJcnzGC27V6fbJM8-24" value="&lt;div style=&quot;text-align: left&quot;&gt;&lt;span&gt;插件数据处理&lt;/span&gt;&lt;/div&gt;" style="rounded=1;whiteSpace=wrap;html=1;fillColor=#dae8fc;strokeColor=#6c8ebf;" parent="1" vertex="1">
          <mxGeometry x="427.5" y="675.5" width="125" height="47" as="geometry"/>
        </mxCell>
        <mxCell id="SkLRgJcnzGC27V6fbJM8-27" value="插件池" style="rounded=1;whiteSpace=wrap;html=1;fillColor=#dae8fc;strokeColor=#6c8ebf;" parent="1" vertex="1">
          <mxGeometry x="427.5" y="615.5" width="125" height="47" as="geometry"/>
        </mxCell>
        <mxCell id="SkLRgJcnzGC27V6fbJM8-28" value="消息队列" style="rounded=1;whiteSpace=wrap;html=1;fillColor=#d5e8d4;strokeColor=#82b366;" parent="1" vertex="1">
          <mxGeometry x="417" y="757.5" width="140" height="60" as="geometry"/>
        </mxCell>
        <mxCell id="SkLRgJcnzGC27V6fbJM8-32" value="" style="endArrow=none;dashed=1;html=1;" parent="1" edge="1">
          <mxGeometry width="50" height="50" relative="1" as="geometry">
            <mxPoint x="90" y="460" as="sourcePoint"/>
            <mxPoint x="850" y="460" as="targetPoint"/>
          </mxGeometry>
        </mxCell>
        <mxCell id="SkLRgJcnzGC27V6fbJM8-35" value="Mapi" style="rounded=1;whiteSpace=wrap;html=1;fillColor=#fad9d5;strokeColor=#ae4132;" parent="1" vertex="1">
          <mxGeometry x="210.5" y="662" width="118" height="42" as="geometry"/>
        </mxCell>
        <mxCell id="SkLRgJcnzGC27V6fbJM8-36" value="" style="rounded=0;whiteSpace=wrap;html=1;fillColor=#b0e3e6;strokeColor=#0e8088;" parent="1" vertex="1">
          <mxGeometry x="628" y="480" width="152" height="360" as="geometry"/>
        </mxCell>
        <mxCell id="SkLRgJcnzGC27V6fbJM8-37" value="&lt;font color=&quot;#222222&quot;&gt;picasso&lt;/font&gt;" style="text;html=1;strokeColor=none;fillColor=none;align=center;verticalAlign=middle;whiteSpace=wrap;rounded=0;fontColor=#FFFFFF;" parent="1" vertex="1">
          <mxGeometry x="680" y="630" width="40" height="20" as="geometry"/>
        </mxCell>
        <mxCell id="SkLRgJcnzGC27V6fbJM8-38" value="" style="rounded=0;whiteSpace=wrap;html=1;fillColor=#bac8d3;strokeColor=#23445d;" parent="1" vertex="1">
          <mxGeometry x="629.5" y="180" width="150" height="260" as="geometry"/>
        </mxCell>
        <mxCell id="SkLRgJcnzGC27V6fbJM8-39" value="设置页" style="text;html=1;strokeColor=none;fillColor=none;align=center;verticalAlign=middle;whiteSpace=wrap;rounded=0;fontColor=#222222;" parent="1" vertex="1">
          <mxGeometry x="640" y="190" width="40" height="20" as="geometry"/>
        </mxCell>
        <mxCell id="SkLRgJcnzGC27V6fbJM8-40" value="服务时间设置" style="rounded=1;whiteSpace=wrap;html=1;fontColor=#222222;" parent="1" vertex="1">
          <mxGeometry x="654" y="222.5" width="100" height="35" as="geometry"/>
        </mxCell>
        <mxCell id="SkLRgJcnzGC27V6fbJM8-41" value="机器人设置" style="rounded=1;whiteSpace=wrap;html=1;fontColor=#222222;" parent="1" vertex="1">
          <mxGeometry x="654" y="272.5" width="100" height="35" as="geometry"/>
        </mxCell>
        <mxCell id="SkLRgJcnzGC27V6fbJM8-42" value="通知手机号设置" style="rounded=1;whiteSpace=wrap;html=1;fontColor=#222222;" parent="1" vertex="1">
          <mxGeometry x="654.5" y="322.5" width="100" height="35" as="geometry"/>
        </mxCell>
        <mxCell id="SkLRgJcnzGC27V6fbJM8-43" value="通知微信号号设置" style="rounded=1;whiteSpace=wrap;html=1;fontColor=#222222;" parent="1" vertex="1">
          <mxGeometry x="654.5" y="370" width="100" height="35" as="geometry"/>
        </mxCell>
      </root>
    </mxGraphModel>
  </diagram>
</mxfile>
